<svg width="52" height="52" viewBox="0 0 52 52" fill="none" xmlns="http://www.w3.org/2000/svg">
  <path
    d="M20.5827 21.6671C20.5827 19.9521 18.3017 19.4976 17.6965 21.1022C16.2326 24.9839 15.166 28.4563 15.166 30.3336C15.166 36.3167 20.0163 41.167 25.9993 41.167C31.9824 41.167 36.8327 36.3167 36.8327 30.3336C36.8327 28.3167 35.6015 24.4586 33.9693 20.23C31.8549 14.7522 30.7977 12.0133 29.4927 11.8658C29.0751 11.8186 28.6196 11.9035 28.247 12.0979C27.0827 12.7054 27.0827 15.6927 27.0827 21.6671C27.0827 23.4621 25.6276 24.9171 23.8327 24.9171C22.0378 24.9171 20.5827 23.4621 20.5827 21.6671Z"
    fill="#1F2937" />
</svg>