<svg width="52" height="52" viewBox="0 0 52 52" fill="none" xmlns="http://www.w3.org/2000/svg">
  <path
    d="M25.4993 29.9H18.2959C16.8874 29.9 16.1832 29.9 15.8883 29.4385C15.5934 28.9769 15.8892 28.3379 16.4809 27.0598L25.0456 8.56006C25.4198 7.75182 25.6069 7.3477 25.8031 7.39091C25.9993 7.43413 25.9993 7.87946 25.9993 8.77013V21.6C25.9993 21.8357 25.9993 21.9536 26.0726 22.0268C26.1458 22.1 26.2636 22.1 26.4993 22.1H33.7028C35.1113 22.1 35.8155 22.1 36.1104 22.5615C36.4053 23.0231 36.1095 23.6621 35.5178 24.9402L26.9531 43.4399C26.5789 44.2482 26.3918 44.6523 26.1956 44.6091C25.9993 44.5659 25.9993 44.1205 25.9993 43.2299V30.4C25.9993 30.1643 25.9993 30.0464 25.9261 29.9732C25.8529 29.9 25.7351 29.9 25.4993 29.9Z"
    fill="white" />
</svg>