<svg width="141" height="36" viewBox="0 0 141 36" fill="none" xmlns="http://www.w3.org/2000/svg">
  <path
    d="M52.84 20.068L53.128 25.828C54.304 26.356 56.344 26.692 57.904 26.692C61.072 26.692 63.832 25.18 63.832 21.604C63.832 16.516 55.264 17.02 55.264 13.012C55.264 11.62 56.224 10.828 57.544 10.828C59.728 10.828 61.624 12.316 62.416 14.86L62.704 14.884V9.7L61.552 10.06H58.12C54.568 10.06 52.912 12.22 52.912 14.5C52.912 20.068 61.192 18.82 61.192 23.38C61.192 25.132 59.776 25.78 58.696 25.78C56.128 25.78 53.92 23.188 53.128 20.068H52.84ZM68.8769 14.716H64.1969L65.9969 16.804V22.9C65.9969 25.156 67.1489 26.74 69.5969 26.74C71.3009 26.74 72.4049 25.924 73.2689 24.724V26.644L77.7809 26.5L76.1489 24.532V14.716H71.4929L73.2689 16.804V23.98C72.6449 24.7 71.8049 25.108 70.9889 25.108C69.1409 25.108 68.8769 23.932 68.8769 22.084V14.716ZM82.6726 14.236L78.1606 15.604L79.7926 17.452V29.596L78.0166 31.66H84.9046L82.6726 29.596V26.428C83.5606 26.62 84.4006 26.716 84.9046 26.716C89.4886 26.716 91.1446 22.804 91.1446 20.14C91.1446 17.26 89.4646 14.5 86.3446 14.5C84.5926 14.5 83.5366 15.292 82.6726 16.3V14.236ZM82.6726 16.948C83.3926 16.492 84.0166 16.276 84.6646 16.276C86.7286 16.276 88.3126 18.58 88.3126 22.324C88.3126 24.004 87.9526 25.66 85.8406 25.66C84.5206 25.66 83.3686 24.82 82.6726 24.028V16.948ZM102.365 19.708H102.389L102.365 19.66C102.341 16.42 100.589 14.5 97.7329 14.5C93.8209 14.5 91.9009 18.052 91.9009 21.148C91.9009 24.028 93.6769 26.836 96.8209 26.836C99.6769 26.836 101.381 24.628 102.245 22.444L101.885 22.3C101.525 23.308 100.085 24.124 98.4529 24.124C96.5809 24.124 94.9249 22.828 94.6609 19.732H102.365V19.708ZM99.2689 19.012H94.6129V18.844C94.6129 17.404 95.3569 15.22 97.1809 15.22C98.2369 15.22 99.2689 16.228 99.2689 18.796V19.012ZM113.073 18.988V14.74H103.137L104.769 16.588V24.436L102.993 26.5H109.881L107.649 24.436V19.276C107.649 16.828 107.649 15.628 109.305 15.628C110.409 15.628 111.825 16.468 112.881 18.988H113.073ZM114.393 11.164L116.457 13.396L118.497 11.164L116.457 8.956L114.393 11.164ZM113.457 16.108L115.089 17.956V24.436L113.313 26.5H119.745L117.969 24.436V14.5L113.457 16.108ZM120.233 21.964L120.449 26.188C121.361 26.572 122.993 26.74 124.193 26.74C126.089 26.74 128.897 25.66 128.897 22.876C128.897 18.484 122.321 19.564 122.321 17.092C122.321 16.156 122.897 15.532 123.905 15.508C125.441 15.484 126.881 16.636 127.745 18.196L127.889 18.22V14.236L127.001 14.74H124.361C121.913 14.74 120.353 16.3 120.353 18.076C120.353 22.828 126.713 21.436 126.713 24.268C126.713 25.348 125.897 25.828 124.913 25.828C122.945 25.828 121.049 24.028 120.425 21.964H120.233ZM139.844 19.708H139.868L139.844 19.66C139.82 16.42 138.068 14.5 135.212 14.5C131.3 14.5 129.38 18.052 129.38 21.148C129.38 24.028 131.156 26.836 134.3 26.836C137.156 26.836 138.86 24.628 139.724 22.444L139.364 22.3C139.004 23.308 137.564 24.124 135.932 24.124C134.06 24.124 132.404 22.828 132.14 19.732H139.844V19.708ZM136.748 19.012H132.092V18.844C132.092 17.404 132.836 15.22 134.66 15.22C135.716 15.22 136.748 16.228 136.748 18.796V19.012Z"
    fill="#374151" />
  <path fill-rule="evenodd" clip-rule="evenodd"
    d="M18 32.25C25.8701 32.25 32.25 25.8701 32.25 18C32.25 10.1299 25.8701 3.75 18 3.75C10.1299 3.75 3.75 10.1299 3.75 18C3.75 25.8701 10.1299 32.25 18 32.25ZM18 36C27.9411 36 36 27.9411 36 18C36 8.05887 27.9411 0 18 0C8.05887 0 0 8.05887 0 18C0 27.9411 8.05887 36 18 36Z"
    fill="#4F46E5" />
  <path fill-rule="evenodd" clip-rule="evenodd"
    d="M29.2894 29.7C22.0106 26.7249 13.9894 26.7249 6.71067 29.7L5.40002 25.8905C13.5238 22.5699 22.4762 22.5699 30.6 25.8905L29.2894 29.7Z"
    fill="#4F46E5" />
  <path fill-rule="evenodd" clip-rule="evenodd" d="M19.8 0.900013L19.8 25.2L16.2 25.2L16.2 0.900013L19.8 0.900013Z"
    fill="#4F46E5" />
  <path fill-rule="evenodd" clip-rule="evenodd"
    d="M6.72551 6.29998L16.2 24.3593L13.0744 26.1L3.59998 8.04069L6.72551 6.29998Z" fill="#4F46E5" />
  <path fill-rule="evenodd" clip-rule="evenodd"
    d="M32.8901 7.90146L22.6401 26.4015L19.3599 24.5841L29.6099 6.08406L32.8901 7.90146Z" fill="#4F46E5" />
</svg>