<svg width="25" height="25" viewBox="0 0 25 25" fill="none" xmlns="http://www.w3.org/2000/svg">
  <rect width="25" height="25" rx="12.5" fill="#4B5563" />
  <path
    d="M15.8146 7.56222L13.5194 10.9722C13.3607 11.2044 13.6659 11.4856 13.8857 11.29L16.1443 9.32222C16.2053 9.27333 16.2908 9.31 16.2908 9.39556V15.5433C16.2908 15.6289 16.1809 15.6656 16.1321 15.6044L9.29523 7.41556C9.07547 7.14667 8.75805 7 8.404 7H8.15982C7.52497 7 7 7.52556 7 8.17333V16.8267C7 17.4744 7.52497 18 8.17203 18C8.57492 18 8.95338 17.7922 9.17314 17.4378L11.4684 14.0278C11.6271 13.7956 11.3219 13.5144 11.1021 13.71L8.84351 15.6656C8.78246 15.7144 8.697 15.6778 8.697 15.5922V9.45667C8.697 9.37111 8.80688 9.33444 8.85572 9.39556L15.6926 17.5844C15.9123 17.8533 16.242 18 16.5838 18H16.828C17.475 18 18 17.4744 18 16.8267V8.17333C17.9878 7.52556 17.4628 7 16.8158 7C16.4129 7 16.0344 7.20778 15.8146 7.56222Z"
    fill="white" />
</svg>