<svg width="24" height="24" viewBox="0 0 24 24" fill="none" xmlns="http://www.w3.org/2000/svg">
  <rect width="24" height="24" rx="12" fill="#4B5563" />
  <path
    d="M15.3146 7.06222L13.0194 10.4722C12.8607 10.7044 13.1659 10.9856 13.3857 10.79L15.6443 8.82222C15.7053 8.77333 15.7908 8.81 15.7908 8.89556V15.0433C15.7908 15.1289 15.6809 15.1656 15.6321 15.1044L8.79523 6.91556C8.57547 6.64667 8.25805 6.5 7.904 6.5H7.65982C7.02497 6.5 6.5 7.02556 6.5 7.67333V16.3267C6.5 16.9744 7.02497 17.5 7.67203 17.5C8.07492 17.5 8.45338 17.2922 8.67314 16.9378L10.9684 13.5278C11.1271 13.2956 10.8219 13.0144 10.6021 13.21L8.34351 15.1656C8.28246 15.2144 8.197 15.1778 8.197 15.0922V8.95667C8.197 8.87111 8.30688 8.83444 8.35572 8.89556L15.1926 17.0844C15.4123 17.3533 15.742 17.5 16.0838 17.5H16.328C16.975 17.5 17.5 16.9744 17.5 16.3267V7.67333C17.4878 7.02556 16.9628 6.5 16.3158 6.5C15.9129 6.5 15.5344 6.70778 15.3146 7.06222Z"
    fill="white" />
</svg>