<svg width="155" height="24" viewBox="0 0 155 24" fill="none" xmlns="http://www.w3.org/2000/svg">
<path d="M1.0629 12.598V11.2727H8.02597V12.598H5.32852V20H3.76034V12.598H1.0629ZM9.91435 20H8.22685L11.2993 11.2727H13.251L16.3277 20H14.6402L12.3092 13.0625H12.2411L9.91435 20ZM9.96974 16.5781H14.572V17.848H9.96974V16.5781ZM17.9572 20V11.2727H21.2299C21.9004 11.2727 22.4629 11.3977 22.9174 11.6477C23.3748 11.8977 23.72 12.2415 23.9529 12.679C24.1887 13.1136 24.3066 13.608 24.3066 14.1619C24.3066 14.7216 24.1887 15.2187 23.9529 15.6534C23.7171 16.0881 23.3691 16.4304 22.9089 16.6804C22.4487 16.9276 21.8819 17.0511 21.2086 17.0511H19.0396V15.7514H20.9956C21.3876 15.7514 21.7086 15.6832 21.9586 15.5469C22.2086 15.4105 22.3933 15.223 22.5126 14.9844C22.6348 14.7457 22.6958 14.4716 22.6958 14.1619C22.6958 13.8523 22.6348 13.5795 22.5126 13.3438C22.3933 13.108 22.2072 12.9247 21.9544 12.794C21.7044 12.6605 21.3819 12.5938 20.987 12.5938H19.5382V20H17.9572ZM29.2329 12.598V11.2727H36.196V12.598H33.4985V20H31.9303V12.598H29.2329ZM45.4299 15.6364C45.4299 16.5767 45.2537 17.3821 44.9015 18.0526C44.552 18.7202 44.0748 19.2315 43.4696 19.5866C42.8674 19.9418 42.1841 20.1193 41.4199 20.1193C40.6557 20.1193 39.9711 19.9418 39.366 19.5866C38.7637 19.2287 38.2864 18.7159 37.9341 18.0483C37.5847 17.3778 37.41 16.5739 37.41 15.6364C37.41 14.696 37.5847 13.892 37.9341 13.2244C38.2864 12.554 38.7637 12.0412 39.366 11.6861C39.9711 11.331 40.6557 11.1534 41.4199 11.1534C42.1841 11.1534 42.8674 11.331 43.4696 11.6861C44.0748 12.0412 44.552 12.554 44.9015 13.2244C45.2537 13.892 45.4299 14.696 45.4299 15.6364ZM43.8404 15.6364C43.8404 14.9744 43.7367 14.4162 43.5293 13.9616C43.3248 13.5043 43.0407 13.1591 42.677 12.9261C42.3134 12.6903 41.8944 12.5724 41.4199 12.5724C40.9455 12.5724 40.5265 12.6903 40.1628 12.9261C39.7992 13.1591 39.5137 13.5043 39.3063 13.9616C39.1017 14.4162 38.9995 14.9744 38.9995 15.6364C38.9995 16.2983 39.1017 16.858 39.3063 17.3153C39.5137 17.7699 39.7992 18.1151 40.1628 18.3509C40.5265 18.5838 40.9455 18.7003 41.4199 18.7003C41.8944 18.7003 42.3134 18.5838 42.677 18.3509C43.0407 18.1151 43.3248 17.7699 43.5293 17.3153C43.7367 16.858 43.8404 16.2983 43.8404 15.6364ZM50.8611 20V11.2727H56.5372V12.598H52.4421V14.9673H56.2432V16.2926H52.4421V18.6747H56.5713V20H50.8611ZM61.5876 20H58.6302V11.2727H61.6472C62.5137 11.2727 63.258 11.4474 63.8802 11.7969C64.5052 12.1435 64.9853 12.642 65.3205 13.2926C65.6557 13.9432 65.8234 14.7216 65.8234 15.6278C65.8234 16.5369 65.6543 17.3182 65.3162 17.9716C64.981 18.625 64.4966 19.1264 63.8631 19.4759C63.2324 19.8253 62.4739 20 61.5876 20ZM60.2111 18.6321H61.5109C62.1188 18.6321 62.6259 18.5213 63.0322 18.2997C63.4384 18.0753 63.7438 17.7415 63.9484 17.2983C64.1529 16.8523 64.2552 16.2955 64.2552 15.6278C64.2552 14.9602 64.1529 14.4062 63.9484 13.9659C63.7438 13.5227 63.4412 13.1918 63.0407 12.973C62.643 12.7514 62.1486 12.6406 61.5577 12.6406H60.2111V18.6321ZM69.3864 11.2727V20H67.8055V11.2727H69.3864ZM71.1949 12.598V11.2727H78.158V12.598H75.4606V20H73.8924V12.598H71.1949ZM83.0534 12.598V11.2727H90.0164V12.598H87.319V20H85.7508V12.598H83.0534ZM93.6754 20L91.2123 11.2727H92.9126L94.4851 17.6861H94.566L96.245 11.2727H97.7919L99.4751 17.6903H99.5518L101.124 11.2727H102.825L100.361 20H98.8018L97.0547 13.8764H96.9865L95.2351 20H93.6754ZM104.401 20V11.2727H110.077V12.598H105.982V14.9673H109.783V16.2926H105.982V18.6747H110.111V20H104.401ZM112.17 20V11.2727H117.846V12.598H113.751V14.9673H117.552V16.2926H113.751V18.6747H117.88V20H112.17ZM119.555 12.598V11.2727H126.518V12.598H123.821V20H122.253V12.598H119.555Z" fill="#6B7280"/>
<path d="M145 4L144.293 3.29289L145 2.58579L145.707 3.29289L145 4ZM137 21C136.448 21 136 20.5523 136 20C136 19.4477 136.448 19 137 19L137 21ZM139.293 8.29289L144.293 3.29289L145.707 4.70711L140.707 9.70711L139.293 8.29289ZM145.707 3.29289L150.707 8.29289L149.293 9.70711L144.293 4.70711L145.707 3.29289ZM146 4L146 14L144 14L144 4L146 4ZM139 21L137 21L137 19L139 19L139 21ZM146 14C146 17.866 142.866 21 139 21L139 19C141.761 19 144 16.7614 144 14L146 14Z" fill="#6B7280"/>
</svg>
